<svg width="40" height="40" viewBox="0 0 40 40" fill="none" xmlns="http://www.w3.org/2000/svg">
<rect width="40" height="40" rx="20" fill="#FF3333"/>
<path fill-rule="evenodd" clip-rule="evenodd" d="M11.75 13C11.75 12.5858 12.0858 12.25 12.5 12.25H27.5C27.9142 12.25 28.25 12.5858 28.25 13V30C28.25 30.4142 27.9142 30.75 27.5 30.75H12.5C12.0858 30.75 11.75 30.4142 11.75 30V13ZM13.25 13.75V29.25H26.75V13.75H13.25Z" fill="white"/>
<path fill-rule="evenodd" clip-rule="evenodd" d="M18 17.25C18.4142 17.25 18.75 17.5858 18.75 18V24.5C18.75 24.9142 18.4142 25.25 18 25.25C17.5858 25.25 17.25 24.9142 17.25 24.5V18C17.25 17.5858 17.5858 17.25 18 17.25Z" fill="white"/>
<path fill-rule="evenodd" clip-rule="evenodd" d="M22 17.25C22.4142 17.25 22.75 17.5858 22.75 18V24.5C22.75 24.9142 22.4142 25.25 22 25.25C21.5858 25.25 21.25 24.9142 21.25 24.5V18C21.25 17.5858 21.5858 17.25 22 17.25Z" fill="white"/>
<path fill-rule="evenodd" clip-rule="evenodd" d="M9.25 13C9.25 12.5858 9.58579 12.25 10 12.25H30C30.4142 12.25 30.75 12.5858 30.75 13C30.75 13.4142 30.4142 13.75 30 13.75H10C9.58579 13.75 9.25 13.4142 9.25 13Z" fill="white"/>
<path fill-rule="evenodd" clip-rule="evenodd" d="M16.9868 9.63949C17.1185 9.39931 17.3706 9.25 17.6445 9.25H22.3885C22.6647 9.25 22.9186 9.40179 23.0493 9.6451L24.6607 12.6451C24.7856 12.8775 24.7791 13.1585 24.6437 13.3849C24.5083 13.6114 24.2638 13.75 24 13.75H16C15.735 13.75 15.4897 13.6102 15.3547 13.3822C15.2197 13.1542 15.215 12.8718 15.3423 12.6395L16.9868 9.63949ZM18.0887 10.75L17.2664 12.25H22.7458L21.9401 10.75H18.0887Z" fill="white"/>
</svg>
