<svg width="40" height="40" viewBox="0 0 40 40" fill="none" xmlns="http://www.w3.org/2000/svg">
<rect width="40" height="40" rx="20" fill="#004CE8"/>
<path fill-rule="evenodd" clip-rule="evenodd" d="M25.204 18.7962L27 17.0002C27.5453 16.4549 27.8179 16.1823 27.9636 15.8882C28.2409 15.3287 28.2409 14.6717 27.9636 14.1122C27.8179 13.8181 27.5453 13.5454 27 13.0002C26.4548 12.4549 26.1821 12.1823 25.888 12.0366C25.3285 11.7593 24.6715 11.7593 24.112 12.0366C23.8179 12.1823 23.5453 12.4549 23 13.0002L21.1814 14.8188C22.1452 16.4694 23.5314 17.845 25.204 18.7962ZM19.7269 16.2733L12.8564 23.1438C12.4313 23.5689 12.2188 23.7814 12.0791 24.0425C11.9393 24.3036 11.8804 24.5983 11.7625 25.1878L11.1471 28.2648C11.0806 28.5974 11.0473 28.7637 11.1419 28.8583C11.2365 28.9529 11.4028 28.9196 11.7355 28.8531L14.8124 28.2377C15.4019 28.1198 15.6966 28.0609 15.9577 27.9211C16.2188 27.7814 16.4313 27.5689 16.8564 27.1438L23.7458 20.2544C22.1241 19.2388 20.7524 17.8765 19.7269 16.2733Z" fill="white"/>
</svg>
