<svg width="48" height="48" viewBox="0 0 48 48" fill="none" xmlns="http://www.w3.org/2000/svg">
<circle cx="24" cy="24" r="24" fill="#EEEEEE"/>
<path fill-rule="evenodd" clip-rule="evenodd" d="M17.25 23.9961C17.25 23.5819 17.5858 23.2461 18 23.2461H30C30.4142 23.2461 30.75 23.5819 30.75 23.9961C30.75 24.4103 30.4142 24.7461 30 24.7461H18C17.5858 24.7461 17.25 24.4103 17.25 23.9961Z" fill="#616161"/>
<path fill-rule="evenodd" clip-rule="evenodd" d="M24.5303 17.4697C24.8232 17.7626 24.8232 18.2374 24.5303 18.5303L19.0607 24L24.5303 29.4697C24.8232 29.7626 24.8232 30.2374 24.5303 30.5303C24.2374 30.8232 23.7626 30.8232 23.4697 30.5303L17.4697 24.5303C17.1768 24.2374 17.1768 23.7626 17.4697 23.4697L23.4697 17.4697C23.7626 17.1768 24.2374 17.1768 24.5303 17.4697Z" fill="#616161"/>
</svg>
